<svg width="96" height="96" viewBox="0 0 96 96" fill="none" xmlns="http://www.w3.org/2000/svg">
<path d="M25.4436 43.4662C24.8584 42.9743 24.0504 42.725 23.0174 42.725C22.0106 42.725 21.0151 42.7776 20.0356 42.8863L19.7595 54.1294L19.8379 56.6102C21.4254 56.8229 22.5811 56.9293 23.2958 56.9293C24.5413 56.9293 25.4902 56.4283 26.1391 55.4298C26.7868 54.4279 27.1129 52.7832 27.1129 50.4877C27.1129 48.5399 26.9788 47.0061 26.7141 45.8875C26.4504 44.7655 26.0254 43.9603 25.4436 43.4662ZM83.9168 54.2884C83.9168 52.8209 83.5554 51.588 82.8407 50.5872C82.127 49.5887 81.2895 48.8006 80.3384 48.2265C79.3838 47.6534 78.1599 47.0415 76.6781 46.3679C75.4042 45.788 74.4963 45.3076 73.9554 44.9473C73.4144 44.587 73.1417 44.1536 73.1417 43.6469C73.1417 43.2466 73.3213 42.9274 73.6792 42.6873C74.0372 42.4471 74.5201 42.327 75.1315 42.327C75.7917 42.327 76.6668 42.526 77.752 42.9274C78.8372 43.3255 79.9395 43.8733 81.0509 44.5664L82.1657 44.0861L83.4361 37.5655C80.9725 36.6322 78.4793 36.1633 75.9633 36.1633C73.8951 36.1633 72.0531 36.5533 70.4383 37.3253C68.8235 38.0962 67.5644 39.1588 66.6655 40.5061C65.7632 41.85 65.3132 43.3666 65.3132 45.0468C65.3132 46.5143 65.6587 47.7461 66.3451 48.748C67.0348 49.7465 67.8496 50.5346 68.7917 51.1076C69.7315 51.6818 70.9303 52.2879 72.3872 52.9296C73.6588 53.4889 74.5815 53.9624 75.1508 54.349C75.719 54.7333 76.0042 55.2068 76.0042 55.7695C76.0042 56.1413 75.8383 56.4546 75.5088 56.7097C75.1781 56.9613 74.6395 57.0894 73.8974 57.0894C72.969 57.0894 71.8088 56.8149 70.4178 56.2671C69.028 55.7226 67.7212 54.9815 66.503 54.0482L65.7087 54.5274L64.5564 61.4906C67.5235 62.504 70.3599 63.0107 73.0622 63.0107C75.2361 63.0107 77.144 62.6241 78.7872 61.8509C80.4281 61.0777 81.6963 60.03 82.5816 58.709C83.4714 57.3891 83.9168 55.9159 83.9168 54.2884ZM60.8041 54.0882L61.2405 36.4858L53.9291 36.925L54.1654 50.4877H53.6881L46.4563 36.6437H37.7891L38.1857 54.9289L37.7891 62.5303H45.0244L44.7051 53.1698L44.7449 48.6897H45.2222L52.4575 62.5303H61.1234L60.8041 54.0882ZM35.4596 48.5284C35.4596 44.6316 34.4471 41.651 32.4198 39.5865C30.3914 37.5186 27.4822 36.4858 23.6924 36.4858L12.0844 36.6437L12.4833 54.9289L12.0844 62.5303C15.7935 62.7705 19.0288 62.8906 21.7833 62.8906C26.1856 62.8906 29.5629 61.6484 31.9221 59.1688C34.2812 56.6891 35.4596 53.1435 35.4596 48.5284ZM85.4668 78.2649C80.6441 75.0121 66.7417 66.5563 47.1892 66.9841C28.6402 67.3912 15.6276 75.5599 10.7991 78.9477C8.22413 75.6331 -0.939589 63.0187 0.0786019 45.0766C0.817245 32.0789 6.52297 22.8763 9.27186 18.9909C13.5014 22.3055 27.5732 32.4827 48.2506 32.6005C68.6178 32.7137 82.6486 22.9964 86.9737 19.7344C89.8044 23.7284 94.3112 31.2909 95.6283 41.7174C98.0488 60.8055 87.9509 74.9686 85.4668 78.2649ZM11.8253 15.8433C15.2958 18.586 19.0549 20.9353 23.0254 22.8351C26.6129 14.3118 32.1255 6.5846 39.0721 0.324827C28.5652 2.28065 18.9913 7.72035 11.8253 15.8433ZM26.7322 24.4546C32.8357 26.8783 39.2505 28.2611 45.8279 28.5653V0C37.3528 6.40618 30.7755 14.8334 26.7322 24.4546ZM49.8688 0.424333V28.6145C56.3143 28.483 62.6416 27.3095 68.6962 25.1272C64.7655 15.4384 58.2814 6.93917 49.8688 0.424333ZM55.9336 0.199014C63.1712 6.68068 68.8474 14.7213 72.4485 23.6254C76.7111 21.7519 80.7486 19.3684 84.4805 16.5364C77.0861 7.81986 67.0519 2.08964 55.9336 0.199014ZM71.3053 75.0647C67.6746 82.9646 62.5144 89.9244 55.9393 95.7987C66.1678 94.0476 75.602 88.9819 82.7964 81.3451C79.2304 78.8368 75.369 76.7254 71.3053 75.0647ZM49.8688 70.6464V95.5734C57.4518 89.7025 63.5144 82.1628 67.4951 73.659C61.8132 71.7833 55.8927 70.7722 49.8688 70.6464ZM27.9595 74.2778C32.0357 82.7393 38.188 90.2206 45.8279 96V70.699C39.6892 70.9838 33.6846 72.1813 27.9595 74.2778ZM39.0664 95.6695C29.4198 93.8692 20.4572 89.0723 13.5185 81.9776C16.8299 79.5562 20.4163 77.4837 24.1981 75.7967C27.7913 83.3512 32.7834 90.0239 39.0664 95.6695Z" fill="black"/>
</svg>
